<svg width="61" height="61" viewBox="0 0 61 61" fill="none" xmlns="http://www.w3.org/2000/svg">
<circle cx="30.5" cy="30.5" r="30" fill="#2FA0F2" fill-opacity="0.2"/>
<circle cx="30.5005" cy="30.5" r="24.2466" fill="#2FA0F2"/>
<path d="M26.8756 36.5V35.132C27.6916 34.484 28.4716 33.83 29.2156 33.17C29.9596 32.51 30.6196 31.862 31.1956 31.226C31.7836 30.578 32.2456 29.948 32.5816 29.336C32.9176 28.712 33.0856 28.112 33.0856 27.536C33.0856 27.152 33.0196 26.792 32.8876 26.456C32.7556 26.108 32.5396 25.832 32.2396 25.628C31.9396 25.412 31.5376 25.304 31.0336 25.304C30.2776 25.304 29.7076 25.544 29.3236 26.024C28.9516 26.504 28.7716 27.08 28.7836 27.752H26.9296C26.9416 26.864 27.1276 26.12 27.4876 25.52C27.8596 24.92 28.3516 24.464 28.9636 24.152C29.5876 23.84 30.2896 23.684 31.0696 23.684C32.2576 23.684 33.2056 24.02 33.9136 24.692C34.6336 25.352 34.9936 26.276 34.9936 27.464C34.9936 28.172 34.8196 28.874 34.4716 29.57C34.1356 30.266 33.6916 30.938 33.1396 31.586C32.5996 32.222 32.0176 32.822 31.3936 33.386C30.7696 33.95 30.1756 34.46 29.6116 34.916H35.3716V36.5H26.8756Z" fill="white"/>
</svg>
