<svg width="61" height="61" viewBox="0 0 61 61" fill="none" xmlns="http://www.w3.org/2000/svg">
<circle cx="30.5" cy="30.5" r="30" fill="#2FA0F2" fill-opacity="0.2"/>
<circle cx="30.5005" cy="30.5" r="24.2466" fill="#2FA0F2"/>
<path d="M30.9838 36.716C30.1678 36.716 29.4238 36.572 28.7518 36.284C28.0918 35.984 27.5638 35.534 27.1678 34.934C26.7718 34.334 26.5618 33.584 26.5378 32.684H28.4278C28.4518 33.356 28.6798 33.926 29.1118 34.394C29.5558 34.85 30.1798 35.078 30.9838 35.078C31.7518 35.078 32.3398 34.868 32.7478 34.448C33.1558 34.016 33.3598 33.482 33.3598 32.846C33.3598 32.078 33.0838 31.508 32.5318 31.136C31.9918 30.764 31.3258 30.578 30.5338 30.578H29.5978V28.994H30.5518C31.2598 28.994 31.8298 28.826 32.2618 28.49C32.7058 28.154 32.9278 27.68 32.9278 27.068C32.9278 26.552 32.7538 26.132 32.4058 25.808C32.0698 25.484 31.5898 25.322 30.9658 25.322C30.3178 25.322 29.8078 25.514 29.4358 25.898C29.0638 26.27 28.8598 26.738 28.8238 27.302H26.9338C26.9578 26.57 27.1378 25.934 27.4738 25.394C27.8218 24.854 28.2958 24.434 28.8958 24.134C29.4958 23.834 30.1858 23.684 30.9658 23.684C31.8058 23.684 32.5078 23.834 33.0718 24.134C33.6478 24.422 34.0798 24.818 34.3678 25.322C34.6678 25.814 34.8178 26.354 34.8178 26.942C34.8178 27.614 34.6318 28.202 34.2598 28.706C33.8878 29.21 33.3898 29.546 32.7658 29.714C33.4858 29.87 34.0798 30.224 34.5478 30.776C35.0158 31.316 35.2498 32.018 35.2498 32.882C35.2498 33.578 35.0878 34.22 34.7638 34.808C34.4398 35.384 33.9598 35.846 33.3238 36.194C32.6878 36.542 31.9078 36.716 30.9838 36.716Z" fill="white"/>
</svg>
