<svg width="131" height="121" viewBox="0 0 131 121" fill="none" xmlns="http://www.w3.org/2000/svg">
<path fill-rule="evenodd" clip-rule="evenodd" d="M119.153 93.0793C120.036 91.8117 120.881 90.5042 121.684 89.1573L9.05328 24.1299C8.28835 25.4989 7.57819 26.884 6.92211 28.2826L119.153 93.0793ZM6.24454 29.7755C5.60922 31.2234 5.03084 32.6846 4.50864 34.1564L115.273 98.1063C116.287 96.9181 117.263 95.6866 118.199 94.4125L6.24454 29.7755ZM2.65358 40.3526C3.03388 38.8039 3.47329 37.2623 3.97264 35.7311L114.177 99.3578C113.101 100.556 111.986 101.707 110.835 102.811L2.65358 40.3526ZM2.26872 42.0145C1.91565 43.6364 1.62669 45.265 1.40089 46.8966L105.794 107.168C107.094 106.156 108.36 105.092 109.588 103.975L2.26872 42.0145ZM0.819249 53.8281C0.870983 52.1042 0.991579 50.3783 1.18215 48.6544L104.381 108.236C102.983 109.263 101.549 110.23 100.082 111.137L0.819249 53.8281ZM0.790091 55.6953C0.78782 57.5392 0.864057 59.379 1.01745 61.2097L93.5898 114.656C95.2519 113.874 96.8834 113.02 98.4791 112.096L0.790091 55.6953ZM2.17692 69.1464C1.76604 67.1847 1.44513 65.2031 1.21596 63.2084L91.7596 115.484C89.9176 116.283 88.0411 116.996 86.1367 117.621L2.17692 69.1464ZM2.66974 71.315C3.21009 73.5187 3.86494 75.6939 4.63171 77.8309L77.3884 119.837C79.6224 119.432 81.8336 118.912 84.0122 118.278L2.66974 71.315ZM9.12619 87.6929C7.77572 85.2836 6.5831 82.7959 5.55292 80.2468L74.8355 120.247C72.1128 120.629 69.3621 120.841 66.6003 120.876L9.12619 87.6929ZM10.833 90.5624C16.2812 99.208 23.8529 106.693 33.3179 112.157C42.7828 117.622 53.0504 120.437 63.2618 120.832L10.833 90.5624ZM12.383 18.7851C11.5045 20.0555 10.6649 21.3658 9.86663 22.7154L122.502 87.7456C123.272 86.3795 123.987 84.9972 124.648 83.6012L12.383 18.7851ZM16.2431 13.7465C15.2345 14.9377 14.2632 16.1721 13.332 17.4489L125.33 82.1113C125.971 80.6664 126.554 79.208 127.081 77.739L16.2431 13.7465ZM128.958 71.5551C128.572 73.1009 128.127 74.6394 127.623 76.1674L17.3334 12.4919C18.4045 11.2909 19.5145 10.1365 20.6603 9.02956L128.958 71.5551ZM21.9013 7.86195L129.348 69.8966C129.707 68.2782 130.002 66.653 130.234 65.0246L25.6779 4.65921C24.3835 5.6742 23.1235 6.74209 21.9013 7.86195ZM130.842 58.1085C130.783 59.8287 130.656 61.5507 130.459 63.2705L27.0843 3.58711C28.4752 2.55664 29.9029 1.5854 31.3634 0.6745L130.842 58.1085ZM32.9583 -0.28876L130.879 56.2456C130.889 54.4066 130.82 52.5714 130.675 50.745L37.8237 -2.86288C36.1695 -2.0753 34.546 -1.21681 32.9583 -0.28876ZM129.556 42.8316C129.956 44.7878 130.267 46.7634 130.486 48.7517L39.6445 -3.69573C41.4762 -4.4998 43.3424 -5.21857 45.2365 -5.8503L129.556 42.8316ZM47.3484 -6.51512L129.076 40.6702C128.549 38.4759 127.909 36.3094 127.158 34.1801L53.9277 -8.09967C51.7083 -7.68527 49.512 -7.15624 47.3484 -6.51512ZM122.764 24.3756C124.085 26.7717 125.251 29.2439 126.257 31.7756L56.4607 -8.52132C59.1563 -8.91578 61.8802 -9.14217 64.6159 -9.19604L122.764 24.3756ZM121.1 21.5308C115.633 12.7072 107.97 5.06821 98.3518 -0.484886C88.7335 -6.03798 78.2864 -8.85496 67.9117 -9.17733L121.1 21.5308Z" fill="#F24A4A" fill-opacity="0.06"/>
</svg>
