<svg width="131" height="131" viewBox="0 0 131 131" fill="none" xmlns="http://www.w3.org/2000/svg">
<path fill-rule="evenodd" clip-rule="evenodd" d="M119.153 103.079C120.036 101.812 120.881 100.504 121.684 99.1573L9.05328 34.1299C8.28835 35.4989 7.57819 36.884 6.92211 38.2826L119.153 103.079ZM6.24454 39.7755C5.60922 41.2234 5.03084 42.6846 4.50864 44.1564L115.273 108.106C116.287 106.918 117.263 105.687 118.199 104.413L6.24454 39.7755ZM2.65358 50.3526C3.03388 48.8039 3.47329 47.2623 3.97264 45.7311L114.177 109.358C113.101 110.556 111.986 111.707 110.835 112.811L2.65358 50.3526ZM2.26872 52.0145C1.91565 53.6364 1.62669 55.265 1.40089 56.8966L105.794 117.168C107.094 116.156 108.36 115.092 109.588 113.975L2.26872 52.0145ZM0.819249 63.8281C0.870983 62.1042 0.991579 60.3783 1.18215 58.6544L104.381 118.236C102.983 119.263 101.549 120.23 100.082 121.137L0.819249 63.8281ZM0.790091 65.6953C0.78782 67.5392 0.864057 69.379 1.01745 71.2097L93.5898 124.656C95.2519 123.874 96.8834 123.02 98.4791 122.096L0.790091 65.6953ZM2.17692 79.1464C1.76604 77.1847 1.44513 75.2031 1.21596 73.2084L91.7596 125.484C89.9176 126.283 88.0411 126.996 86.1367 127.621L2.17692 79.1464ZM2.66974 81.315C3.21009 83.5187 3.86494 85.6939 4.63171 87.8309L77.3884 129.837C79.6224 129.432 81.8336 128.912 84.0122 128.278L2.66974 81.315ZM9.12619 97.6929C7.77572 95.2836 6.5831 92.7959 5.55292 90.2468L74.8355 130.247C72.1128 130.629 69.3621 130.841 66.6003 130.876L9.12619 97.6929ZM10.833 100.562C16.2812 109.208 23.8529 116.693 33.3179 122.157C42.7828 127.622 53.0504 130.437 63.2618 130.832L10.833 100.562ZM12.383 28.7851C11.5045 30.0555 10.6649 31.3658 9.86663 32.7154L122.502 97.7456C123.272 96.3795 123.987 94.9972 124.648 93.6012L12.383 28.7851ZM16.2431 23.7465C15.2345 24.9377 14.2632 26.1721 13.332 27.4489L125.33 92.1113C125.971 90.6664 126.554 89.208 127.081 87.739L16.2431 23.7465ZM128.958 81.5551C128.572 83.1009 128.127 84.6394 127.623 86.1674L17.3334 22.4919C18.4045 21.2909 19.5145 20.1365 20.6603 19.0296L128.958 81.5551ZM21.9013 17.8619L129.348 79.8966C129.707 78.2782 130.002 76.653 130.234 75.0246L25.6779 14.6592C24.3835 15.6742 23.1235 16.7421 21.9013 17.8619ZM130.842 68.1085C130.783 69.8287 130.656 71.5507 130.459 73.2705L27.0843 13.5871C28.4752 12.5566 29.9029 11.5854 31.3634 10.6745L130.842 68.1085ZM32.9583 9.71124L130.879 66.2456C130.889 64.4066 130.82 62.5714 130.675 60.745L37.8237 7.13712C36.1695 7.9247 34.546 8.78319 32.9583 9.71124ZM129.556 52.8316C129.956 54.7878 130.267 56.7634 130.486 58.7517L39.6445 6.30427C41.4762 5.5002 43.3424 4.78143 45.2365 4.1497L129.556 52.8316ZM47.3484 3.48488L129.076 50.6702C128.549 48.4759 127.909 46.3094 127.158 44.1801L53.9277 1.90033C51.7083 2.31473 49.512 2.84376 47.3484 3.48488ZM122.764 34.3756C124.085 36.7717 125.251 39.2439 126.257 41.7756L56.4607 1.47868C59.1563 1.08422 61.8802 0.857833 64.6159 0.80396L122.764 34.3756ZM121.1 31.5308C115.633 22.7072 107.97 15.0682 98.3518 9.51511C88.7335 3.96202 78.2864 1.14504 67.9117 0.822671L121.1 31.5308Z" fill="#2FA0F2" fill-opacity="0.06"/>
</svg>
