<svg width="198" height="57" viewBox="0 0 198 57" fill="none" xmlns="http://www.w3.org/2000/svg">
<path d="M0.952 55V45.2H4.298C5.446 45.2 6.38867 45.4053 7.126 45.816C7.87267 46.2173 8.42333 46.7867 8.778 47.524C9.142 48.252 9.324 49.1107 9.324 50.1C9.324 51.0893 9.142 51.9527 8.778 52.69C8.42333 53.418 7.87267 53.9873 7.126 54.398C6.38867 54.7993 5.446 55 4.298 55H0.952ZM2.744 53.46H4.214C5.03533 53.46 5.684 53.3293 6.16 53.068C6.636 52.7973 6.97667 52.4147 7.182 51.92C7.38733 51.416 7.49 50.8093 7.49 50.1C7.49 49.4 7.38733 48.798 7.182 48.294C6.97667 47.79 6.636 47.4027 6.16 47.132C5.684 46.8613 5.03533 46.726 4.214 46.726H2.744V53.46ZM17.1462 55L20.7302 45.2H22.7462L26.3302 55H24.4262L23.6422 52.732H19.8202L19.0222 55H17.1462ZM20.3102 51.332H23.1522L21.7242 47.258L20.3102 51.332ZM36.6905 55L33.1065 45.2H35.0245L37.7965 53.166L40.5825 45.2H42.4725L38.8885 55H36.6905ZM51.1375 55V45.2H57.5355V46.642H52.9295V49.33H57.1155V50.73H52.9295V53.558H57.5355V55H51.1375ZM76.9372 55L80.5212 45.2H82.5372L86.1212 55H84.2172L83.4332 52.732H79.6112L78.8132 55H76.9372ZM80.1012 51.332H82.9432L81.5152 47.258L80.1012 51.332ZM94.8836 55V45.2H96.6756V53.6H101.016V55H94.8836ZM110.095 55V45.2H116.493V46.642H111.887V49.33H116.073V50.73H111.887V53.558H116.493V55H110.095ZM125.688 55V45.2H129.622C130.64 45.2 131.414 45.438 131.946 45.914C132.488 46.3807 132.758 46.9827 132.758 47.72C132.758 48.336 132.59 48.8307 132.254 49.204C131.928 49.568 131.526 49.8153 131.05 49.946C131.61 50.058 132.072 50.338 132.436 50.786C132.8 51.2247 132.982 51.738 132.982 52.326C132.982 53.1007 132.702 53.74 132.142 54.244C131.582 54.748 130.789 55 129.762 55H125.688ZM127.48 49.316H129.356C129.86 49.316 130.248 49.1993 130.518 48.966C130.789 48.7327 130.924 48.4013 130.924 47.972C130.924 47.5613 130.789 47.2393 130.518 47.006C130.257 46.7633 129.86 46.642 129.328 46.642H127.48V49.316ZM127.48 53.544H129.482C130.014 53.544 130.425 53.4227 130.714 53.18C131.013 52.928 131.162 52.578 131.162 52.13C131.162 51.6727 131.008 51.3133 130.7 51.052C130.392 50.7907 129.977 50.66 129.454 50.66H127.48V53.544ZM142.02 55V45.2H148.418V46.642H143.812V49.33H147.998V50.73H143.812V53.558H148.418V55H142.02ZM157.614 55V45.2H161.212C161.996 45.2 162.64 45.3353 163.144 45.606C163.657 45.8673 164.04 46.2267 164.292 46.684C164.544 47.132 164.67 47.6313 164.67 48.182C164.67 48.7793 164.511 49.3253 164.194 49.82C163.886 50.3147 163.401 50.674 162.738 50.898L164.768 55H162.71L160.89 51.136H159.406V55H157.614ZM159.406 49.82H161.1C161.697 49.82 162.136 49.6753 162.416 49.386C162.696 49.0967 162.836 48.714 162.836 48.238C162.836 47.7713 162.696 47.398 162.416 47.118C162.145 46.838 161.702 46.698 161.086 46.698H159.406V49.82ZM173.837 55V45.2H177.435C178.219 45.2 178.863 45.3353 179.367 45.606C179.88 45.8673 180.263 46.2267 180.515 46.684C180.767 47.132 180.893 47.6313 180.893 48.182C180.893 48.7793 180.734 49.3253 180.417 49.82C180.109 50.3147 179.623 50.674 178.961 50.898L180.991 55H178.933L177.113 51.136H175.629V55H173.837ZM175.629 49.82H177.323C177.92 49.82 178.359 49.6753 178.639 49.386C178.919 49.0967 179.059 48.714 179.059 48.238C179.059 47.7713 178.919 47.398 178.639 47.118C178.368 46.838 177.925 46.698 177.309 46.698H175.629V49.82ZM192.252 55V51.514L188.962 45.2H190.992L193.162 49.722L195.318 45.2H197.32L194.044 51.514V55H192.252Z" fill="#BE0808"/>
<path d="M2.34 37V19.144H6.444L6.876 22.492C7.524 21.34 8.4 20.428 9.504 19.756C10.632 19.06 11.952 18.712 13.464 18.712V23.572H12.168C11.16 23.572 10.26 23.728 9.468 24.04C8.676 24.352 8.052 24.892 7.596 25.66C7.164 26.428 6.948 27.496 6.948 28.864V37H2.34ZM20.0974 16.372C19.2574 16.372 18.5614 16.12 18.0094 15.616C17.4814 15.112 17.2174 14.476 17.2174 13.708C17.2174 12.94 17.4814 12.316 18.0094 11.836C18.5614 11.332 19.2574 11.08 20.0974 11.08C20.9374 11.08 21.6214 11.332 22.1494 11.836C22.7014 12.316 22.9774 12.94 22.9774 13.708C22.9774 14.476 22.7014 15.112 22.1494 15.616C21.6214 16.12 20.9374 16.372 20.0974 16.372ZM17.7934 37V19.144H22.4014V37H17.7934ZM36.9591 37.432C35.1351 37.432 33.5271 37.036 32.1351 36.244C30.7431 35.452 29.6391 34.348 28.8231 32.932C28.0311 31.516 27.6351 29.896 27.6351 28.072C27.6351 26.248 28.0311 24.628 28.8231 23.212C29.6391 21.796 30.7431 20.692 32.1351 19.9C33.5271 19.108 35.1351 18.712 36.9591 18.712C39.2391 18.712 41.1591 19.312 42.7191 20.512C44.2791 21.688 45.2751 23.32 45.7071 25.408H40.8471C40.6071 24.544 40.1271 23.872 39.4071 23.392C38.7111 22.888 37.8831 22.636 36.9231 22.636C35.6511 22.636 34.5711 23.116 33.6831 24.076C32.7951 25.036 32.3511 26.368 32.3511 28.072C32.3511 29.776 32.7951 31.108 33.6831 32.068C34.5711 33.028 35.6511 33.508 36.9231 33.508C37.8831 33.508 38.7111 33.268 39.4071 32.788C40.1271 32.308 40.6071 31.624 40.8471 30.736H45.7071C45.2751 32.752 44.2791 34.372 42.7191 35.596C41.1591 36.82 39.2391 37.432 36.9591 37.432ZM50.797 37V11.08H55.405V21.88C56.005 20.896 56.809 20.128 57.817 19.576C58.849 19 60.025 18.712 61.345 18.712C63.553 18.712 65.257 19.408 66.457 20.8C67.681 22.192 68.293 24.232 68.293 26.92V37H63.721V27.352C63.721 25.816 63.409 24.64 62.785 23.824C62.185 23.008 61.225 22.6 59.905 22.6C58.609 22.6 57.529 23.056 56.665 23.968C55.825 24.88 55.405 26.152 55.405 27.784V37H50.797ZM79.8554 37.432C78.3194 37.432 77.0594 37.192 76.0754 36.712C75.0914 36.208 74.3594 35.548 73.8794 34.732C73.3994 33.916 73.1594 33.016 73.1594 32.032C73.1594 30.376 73.8074 29.032 75.1034 28C76.3994 26.968 78.3434 26.452 80.9354 26.452H85.4714V26.02C85.4714 24.796 85.1234 23.896 84.4274 23.32C83.7314 22.744 82.8674 22.456 81.8354 22.456C80.8994 22.456 80.0834 22.684 79.3874 23.14C78.6914 23.572 78.2594 24.22 78.0914 25.084H73.5914C73.7114 23.788 74.1434 22.66 74.8874 21.7C75.6554 20.74 76.6394 20.008 77.8394 19.504C79.0394 18.976 80.3834 18.712 81.8714 18.712C84.4154 18.712 86.4194 19.348 87.8834 20.62C89.3474 21.892 90.0794 23.692 90.0794 26.02V37H86.1554L85.7234 34.12C85.1954 35.08 84.4514 35.872 83.4914 36.496C82.5554 37.12 81.3434 37.432 79.8554 37.432ZM80.8994 33.832C82.2194 33.832 83.2394 33.4 83.9594 32.536C84.7034 31.672 85.1714 30.604 85.3634 29.332H81.4394C80.2154 29.332 79.3394 29.56 78.8114 30.016C78.2834 30.448 78.0194 30.988 78.0194 31.636C78.0194 32.332 78.2834 32.872 78.8114 33.256C79.3394 33.64 80.0354 33.832 80.8994 33.832ZM95.4767 37V19.144H99.5807L100.013 22.492C100.661 21.34 101.537 20.428 102.641 19.756C103.769 19.06 105.089 18.712 106.601 18.712V23.572H105.305C104.297 23.572 103.397 23.728 102.605 24.04C101.813 24.352 101.189 24.892 100.733 25.66C100.301 26.428 100.085 27.496 100.085 28.864V37H95.4767ZM118.642 37.432C116.962 37.432 115.462 37.024 114.142 36.208C112.822 35.392 111.778 34.276 111.01 32.86C110.242 31.444 109.858 29.836 109.858 28.036C109.858 26.236 110.242 24.64 111.01 23.248C111.778 21.832 112.822 20.728 114.142 19.936C115.462 19.12 116.962 18.712 118.642 18.712C119.986 18.712 121.162 18.964 122.17 19.468C123.178 19.972 123.994 20.68 124.618 21.592V11.08H129.226V37H125.122L124.618 34.444C124.042 35.236 123.274 35.932 122.314 36.532C121.378 37.132 120.154 37.432 118.642 37.432ZM119.614 33.4C121.102 33.4 122.314 32.908 123.25 31.924C124.21 30.916 124.69 29.632 124.69 28.072C124.69 26.512 124.21 25.24 123.25 24.256C122.314 23.248 121.102 22.744 119.614 22.744C118.15 22.744 116.938 23.236 115.978 24.22C115.018 25.204 114.538 26.476 114.538 28.036C114.538 29.596 115.018 30.88 115.978 31.888C116.938 32.896 118.15 33.4 119.614 33.4ZM142.298 37.432C140.714 37.432 139.322 37.18 138.122 36.676C136.922 36.148 135.962 35.428 135.242 34.516C134.522 33.604 134.09 32.548 133.946 31.348H138.59C138.734 32.044 139.118 32.644 139.742 33.148C140.39 33.628 141.218 33.868 142.226 33.868C143.234 33.868 143.966 33.664 144.422 33.256C144.902 32.848 145.142 32.38 145.142 31.852C145.142 31.084 144.806 30.568 144.134 30.304C143.462 30.016 142.526 29.74 141.326 29.476C140.558 29.308 139.778 29.104 138.986 28.864C138.194 28.624 137.462 28.324 136.79 27.964C136.142 27.58 135.614 27.1 135.206 26.524C134.798 25.924 134.594 25.192 134.594 24.328C134.594 22.744 135.218 21.412 136.466 20.332C137.738 19.252 139.514 18.712 141.794 18.712C143.906 18.712 145.586 19.204 146.834 20.188C148.106 21.172 148.862 22.528 149.102 24.256H144.746C144.482 22.936 143.486 22.276 141.758 22.276C140.894 22.276 140.222 22.444 139.742 22.78C139.286 23.116 139.058 23.536 139.058 24.04C139.058 24.568 139.406 24.988 140.102 25.3C140.798 25.612 141.722 25.9 142.874 26.164C144.122 26.452 145.262 26.776 146.294 27.136C147.35 27.472 148.19 27.988 148.814 28.684C149.438 29.356 149.75 30.328 149.75 31.6C149.774 32.704 149.486 33.7 148.886 34.588C148.286 35.476 147.422 36.172 146.294 36.676C145.166 37.18 143.834 37.432 142.298 37.432ZM163.4 37.432C161.672 37.432 160.112 37.036 158.72 36.244C157.352 35.452 156.26 34.36 155.444 32.968C154.652 31.552 154.256 29.92 154.256 28.072C154.256 26.224 154.664 24.604 155.48 23.212C156.296 21.796 157.388 20.692 158.756 19.9C160.148 19.108 161.708 18.712 163.436 18.712C165.14 18.712 166.676 19.108 168.044 19.9C169.436 20.692 170.528 21.796 171.32 23.212C172.136 24.604 172.544 26.224 172.544 28.072C172.544 29.92 172.136 31.552 171.32 32.968C170.528 34.36 169.436 35.452 168.044 36.244C166.652 37.036 165.104 37.432 163.4 37.432ZM163.4 33.436C164.6 33.436 165.644 32.992 166.532 32.104C167.42 31.192 167.864 29.848 167.864 28.072C167.864 26.296 167.42 24.964 166.532 24.076C165.644 23.164 164.612 22.708 163.436 22.708C162.212 22.708 161.156 23.164 160.268 24.076C159.404 24.964 158.972 26.296 158.972 28.072C158.972 29.848 159.404 31.192 160.268 32.104C161.156 32.992 162.2 33.436 163.4 33.436ZM177.664 37V19.144H181.732L182.092 22.168C182.644 21.112 183.436 20.272 184.468 19.648C185.524 19.024 186.76 18.712 188.176 18.712C190.384 18.712 192.1 19.408 193.324 20.8C194.548 22.192 195.16 24.232 195.16 26.92V37H190.552V27.352C190.552 25.816 190.24 24.64 189.616 23.824C188.992 23.008 188.02 22.6 186.7 22.6C185.404 22.6 184.336 23.056 183.496 23.968C182.68 24.88 182.272 26.152 182.272 27.784V37H177.664Z" fill="#BE0808"/>
</svg>
