<svg width="225" height="225" viewBox="0 0 225 225" fill="none" xmlns="http://www.w3.org/2000/svg">
<path fill-rule="evenodd" clip-rule="evenodd" d="M204.757 177.081C206.277 174.899 207.731 172.647 209.114 170.328L15.1886 58.3652C13.8716 60.7223 12.6489 63.1071 11.5192 65.5153L204.757 177.081ZM10.3526 68.0857C9.25873 70.5786 8.26288 73.0945 7.36376 75.6287L198.076 185.736C199.821 183.691 201.502 181.57 203.114 179.376L10.3526 68.0857ZM4.16975 86.2972C4.82455 83.6306 5.58112 80.9764 6.4409 78.3399L196.189 187.891C194.336 189.954 192.416 191.936 190.434 193.837L4.16975 86.2972ZM3.50711 89.1587C2.8992 91.9512 2.40168 94.7552 2.01291 97.5645L181.754 201.338C183.993 199.597 186.172 197.764 188.287 195.841L3.50711 89.1587ZM1.01145 109.499C1.10052 106.531 1.30816 103.559 1.63628 100.591L179.322 203.178C176.915 204.946 174.445 206.612 171.92 208.173L1.01145 109.499ZM0.961245 112.714C0.957332 115.889 1.08861 119.056 1.35272 122.209L160.742 214.232C163.604 212.885 166.413 211.415 169.16 209.824L0.961245 112.714ZM3.34905 135.874C2.64162 132.496 2.08908 129.084 1.6945 125.65L157.591 215.657C154.419 217.032 151.188 218.26 147.909 219.336L3.34905 135.874ZM4.19759 139.608C5.12795 143.402 6.25547 147.147 7.57568 150.827L132.847 223.152C136.693 222.455 140.5 221.559 144.252 220.468L4.19759 139.608ZM15.3142 167.807C12.989 163.659 10.9356 159.375 9.1618 154.986L128.451 223.858C123.763 224.516 119.027 224.88 114.272 224.94L15.3142 167.807ZM18.253 172.748C27.6336 187.633 40.6704 200.52 56.9669 209.929C73.2635 219.338 90.942 224.184 108.524 224.866L18.253 172.748ZM214.217 160.762C213.079 163.165 211.848 165.545 210.523 167.898L16.5891 55.9297C17.9635 53.6061 19.4092 51.35 20.9218 49.1626L214.217 160.762ZM22.5557 46.862C24.159 44.6635 25.8314 42.5382 27.568 40.4872L218.407 150.668C217.499 153.198 216.495 155.709 215.393 158.196L22.5557 46.862ZM35.1734 32.3657C33.2005 34.2717 31.2893 36.2593 29.4452 38.3271L219.339 147.962C220.208 145.332 220.974 142.683 221.638 140.021L35.1734 32.3657ZM37.3101 30.3553C39.4144 28.4272 41.5839 26.5885 43.8126 24.8409L223.835 128.777C223.436 131.581 222.928 134.379 222.311 137.165L37.3101 30.3553ZM46.2341 22.995L224.223 125.757C224.562 122.796 224.781 119.831 224.882 116.869L53.6017 17.9801C51.0872 19.5485 48.6289 21.2208 46.2341 22.995ZM56.3478 16.3216C59.0815 14.7237 61.8768 13.2456 64.7249 11.8895L224.595 104.191C224.845 107.335 224.962 110.495 224.945 113.661L56.3478 16.3216ZM67.86 10.4555L224.269 100.759C223.891 97.3351 223.357 93.9336 222.668 90.5654L77.4883 6.74586C74.2269 7.83355 71.0137 9.07112 67.86 10.4555ZM81.1244 5.60117C84.8497 4.49731 88.6312 3.58644 92.4525 2.87293L218.54 75.6694C219.833 79.3356 220.934 83.0659 221.841 86.844L81.1244 5.60117ZM210.973 58.7883C213.248 62.9139 215.255 67.1705 216.988 71.5294L96.8139 2.14694C101.455 1.46777 106.145 1.07797 110.855 0.985215L210.973 58.7883ZM208.108 53.8901C198.696 38.6978 185.502 25.5451 168.941 15.9839C152.381 6.42268 134.393 1.57246 116.53 1.01743L208.108 53.8901Z" fill="#2FA0F2" fill-opacity="0.06"/>
</svg>
