<svg width="530" height="533" viewBox="0 0 530 533" fill="none" xmlns="http://www.w3.org/2000/svg">
<path fill-rule="evenodd" clip-rule="evenodd" d="M472.414 398.326C476.679 392.206 480.757 385.892 484.635 379.388L-59.2426 65.3797C-62.9363 71.9902 -66.3656 78.6786 -69.5337 85.4325L472.414 398.326ZM-72.8056 92.6415C-75.8734 99.633 -78.6663 106.689 -81.188 113.796L453.678 422.601C458.572 416.864 463.286 410.917 467.807 404.764L-72.8056 92.6415ZM-90.1458 143.717C-88.3094 136.238 -86.1875 128.794 -83.7762 121.4L448.387 428.644C443.189 434.43 437.803 439.989 432.245 445.319L-90.1458 143.717ZM-92.0042 151.742C-93.7091 159.574 -95.1045 167.438 -96.1948 175.317L407.903 466.358C414.181 461.474 420.294 456.334 426.224 450.941L-92.0042 151.742ZM-99.0035 208.788C-98.7537 200.463 -98.1713 192.129 -97.2511 183.805L401.08 471.517C394.331 476.476 387.405 481.147 380.32 485.526L-99.0035 208.788ZM-99.1443 217.804C-99.1553 226.708 -98.7871 235.593 -98.0464 244.433L348.972 502.519C356.999 498.741 364.877 494.617 372.582 490.156L-99.1443 217.804ZM-92.4475 282.758C-94.4316 273.285 -95.9812 263.716 -97.0878 254.084L340.135 506.515C331.24 510.372 322.178 513.815 312.983 516.833L-92.4475 282.758ZM-90.0677 293.23C-87.4585 303.871 -84.2963 314.375 -80.5936 324.694L270.738 527.535C281.526 525.582 292.203 523.069 302.724 520.008L-90.0677 293.23ZM-58.8903 372.317C-65.4116 360.682 -71.1706 348.669 -76.1452 336.36L258.41 529.516C245.263 531.362 231.98 532.381 218.644 532.551L-58.8903 372.317ZM-50.6485 386.173C-24.3397 427.921 12.2228 464.063 57.9277 490.451C103.632 516.838 153.213 530.432 202.523 532.342L-50.6485 386.173ZM498.947 352.558C495.755 359.299 492.303 365.974 488.587 372.571L-55.315 58.5492C-51.4603 52.0323 -47.4057 45.7049 -43.1636 39.5704L498.947 352.558ZM-38.581 33.1181C-34.0845 26.9523 -29.3943 20.9916 -24.5239 15.2397L510.698 324.25C508.152 331.344 505.335 338.386 502.244 345.363L-38.581 33.1181ZM-3.19394 -7.53776C-8.72703 -2.19236 -14.087 3.38199 -19.259 9.18131L513.312 316.662C515.749 309.283 517.896 301.854 519.759 294.389L-3.19394 -7.53776ZM2.79862 -13.176C8.70035 -18.5836 14.7849 -23.7403 21.0353 -28.6415L525.921 262.854C524.801 270.718 523.378 278.566 521.646 286.38L2.79862 -13.176ZM27.8267 -33.8185L527.008 254.384C527.96 246.08 528.574 237.764 528.857 229.457L48.4896 -47.8831C41.4374 -43.4845 34.5431 -38.7946 27.8267 -33.8185ZM56.1913 -52.5346C63.8581 -57.016 71.6976 -61.1616 79.6855 -64.9647L528.052 193.9C528.753 202.719 529.082 211.581 529.035 220.462L56.1913 -52.5346ZM88.4779 -68.9864L527.139 184.275C526.079 174.674 524.579 165.134 522.648 155.687L115.481 -79.3905C106.334 -76.34 97.3228 -72.8691 88.4779 -68.9864ZM125.679 -82.6008C136.127 -85.6967 146.732 -88.2513 157.449 -90.2524L511.07 113.911C514.696 124.193 517.786 134.655 520.329 145.251L125.679 -82.6008ZM489.849 66.5663C496.229 78.1368 501.859 90.0747 506.718 102.3L169.681 -92.2885C182.698 -94.1932 195.851 -95.2865 209.061 -95.5466L489.849 66.5663ZM224.976 -95.4563L481.814 52.8289C455.417 10.221 418.412 -26.6666 371.967 -53.4817C325.522 -80.2968 275.074 -93.8997 224.976 -95.4563Z" fill="#F24A4A" fill-opacity="0.06"/>
</svg>
